<?xml version="1.0" encoding="UTF-8" standalone="no"?>
<!-- This is a Stata 15.0 generated SVG file (http://www.stata.com) -->

<svg version="1.1" width="3.19in" height="2.30in" viewBox="0 0 2297 1657" xmlns="http://www.w3.org/2000/svg" xmlns:xlink="http://www.w3.org/1999/xlink">
	<desc>Stata Graph - Graph</desc>
	<rect x="0" y="0" width="2297" height="1657" style="fill:#FFFFFF;stroke:none"/>
	<rect x="0.00" y="0.00" width="2297.00" height="1657.00" style="fill:#FFFFFF"/>
	<rect x="1.66" y="1.66" width="2293.69" height="1653.69" style="fill:none;stroke:#FFFFFF;stroke-width:3.31"/>
	<rect x="224.75" y="58.02" width="2014.25" height="1324.45" style="fill:#FFFFFF"/>
	<rect x="226.40" y="59.68" width="2010.94" height="1321.14" style="fill:none;stroke:#FFFFFF;stroke-width:3.31"/>
	<line x1="224.75" y1="954.92" x2="2239.00" y2="954.92" style="stroke:#EAF2F3;stroke-width:4.97"/>
	<line x1="224.75" y1="563.77" x2="2239.00" y2="563.77" style="stroke:#EAF2F3;stroke-width:4.97"/>
	<line x1="224.75" y1="172.70" x2="2239.00" y2="172.70" style="stroke:#EAF2F3;stroke-width:4.97"/>
	<line x1="277.65" y1="619.86" x2="285.98" y2="618.42" stroke-linecap="round" style="stroke:#000000;stroke-width:7.45"/>
	<line x1="285.98" y1="618.42" x2="294.23" y2="616.99" stroke-linecap="round" style="stroke:#000000;stroke-width:7.45"/>
	<line x1="294.23" y1="616.99" x2="302.49" y2="615.55" stroke-linecap="round" style="stroke:#000000;stroke-width:7.45"/>
	<line x1="302.49" y1="615.55" x2="310.74" y2="614.40" stroke-linecap="round" style="stroke:#000000;stroke-width:7.45"/>
	<line x1="310.74" y1="614.40" x2="319.00" y2="613.25" stroke-linecap="round" style="stroke:#000000;stroke-width:7.45"/>
	<line x1="319.00" y1="613.25" x2="327.25" y2="612.10" stroke-linecap="round" style="stroke:#000000;stroke-width:7.45"/>
	<line x1="327.25" y1="612.10" x2="335.51" y2="610.95" stroke-linecap="round" style="stroke:#000000;stroke-width:7.45"/>
	<line x1="335.51" y1="610.95" x2="343.76" y2="610.31" stroke-linecap="round" style="stroke:#000000;stroke-width:7.45"/>
	<line x1="343.76" y1="610.31" x2="352.02" y2="609.59" stroke-linecap="round" style="stroke:#000000;stroke-width:7.45"/>
	<line x1="352.02" y1="609.59" x2="360.27" y2="608.94" stroke-linecap="round" style="stroke:#000000;stroke-width:7.45"/>
	<line x1="360.27" y1="608.94" x2="368.52" y2="608.22" stroke-linecap="round" style="stroke:#000000;stroke-width:7.45"/>
	<line x1="368.52" y1="608.22" x2="376.78" y2="607.22" stroke-linecap="round" style="stroke:#000000;stroke-width:7.45"/>
	<line x1="376.78" y1="607.22" x2="385.11" y2="606.21" stroke-linecap="round" style="stroke:#000000;stroke-width:7.45"/>
	<line x1="385.11" y1="606.21" x2="393.36" y2="605.21" stroke-linecap="round" style="stroke:#000000;stroke-width:7.45"/>
	<line x1="393.36" y1="605.21" x2="401.62" y2="604.20" stroke-linecap="round" style="stroke:#000000;stroke-width:7.45"/>
	<line x1="401.62" y1="604.20" x2="409.87" y2="603.20" stroke-linecap="round" style="stroke:#000000;stroke-width:7.45"/>
	<line x1="409.87" y1="603.20" x2="418.13" y2="602.19" stroke-linecap="round" style="stroke:#000000;stroke-width:7.45"/>
	<line x1="418.13" y1="602.19" x2="426.38" y2="601.26" stroke-linecap="round" style="stroke:#000000;stroke-width:7.45"/>
	<line x1="426.38" y1="601.26" x2="434.64" y2="600.25" stroke-linecap="round" style="stroke:#000000;stroke-width:7.45"/>
	<line x1="434.64" y1="600.25" x2="442.89" y2="599.18" stroke-linecap="round" style="stroke:#000000;stroke-width:7.45"/>
	<line x1="442.89" y1="599.18" x2="451.15" y2="598.10" stroke-linecap="round" style="stroke:#000000;stroke-width:7.45"/>
	<line x1="451.15" y1="598.10" x2="459.40" y2="597.02" stroke-linecap="round" style="stroke:#000000;stroke-width:7.45"/>
	<line x1="459.40" y1="597.02" x2="467.65" y2="595.95" stroke-linecap="round" style="stroke:#000000;stroke-width:7.45"/>
	<line x1="467.65" y1="595.95" x2="475.98" y2="594.58" stroke-linecap="round" style="stroke:#000000;stroke-width:7.45"/>
	<line x1="475.98" y1="594.58" x2="484.24" y2="593.22" stroke-linecap="round" style="stroke:#000000;stroke-width:7.45"/>
	<line x1="484.24" y1="593.22" x2="492.49" y2="591.85" stroke-linecap="round" style="stroke:#000000;stroke-width:7.45"/>
	<line x1="492.49" y1="591.85" x2="500.75" y2="590.56" stroke-linecap="round" style="stroke:#000000;stroke-width:7.45"/>
	<line x1="500.75" y1="590.56" x2="509.00" y2="589.48" stroke-linecap="round" style="stroke:#000000;stroke-width:7.45"/>
	<line x1="509.00" y1="589.48" x2="517.26" y2="588.48" stroke-linecap="round" style="stroke:#000000;stroke-width:7.45"/>
	<line x1="517.26" y1="588.48" x2="525.51" y2="587.40" stroke-linecap="round" style="stroke:#000000;stroke-width:7.45"/>
	<line x1="525.51" y1="587.40" x2="533.77" y2="586.39" stroke-linecap="round" style="stroke:#000000;stroke-width:7.45"/>
	<line x1="533.77" y1="586.39" x2="542.02" y2="585.17" stroke-linecap="round" style="stroke:#000000;stroke-width:7.45"/>
	<line x1="542.02" y1="585.17" x2="550.28" y2="583.95" stroke-linecap="round" style="stroke:#000000;stroke-width:7.45"/>
	<line x1="550.28" y1="583.95" x2="558.53" y2="582.80" stroke-linecap="round" style="stroke:#000000;stroke-width:7.45"/>
	<line x1="558.53" y1="582.80" x2="566.86" y2="581.66" stroke-linecap="round" style="stroke:#000000;stroke-width:7.45"/>
	<line x1="566.86" y1="581.66" x2="575.11" y2="579.93" stroke-linecap="round" style="stroke:#000000;stroke-width:7.45"/>
	<line x1="575.11" y1="579.93" x2="583.37" y2="578.28" stroke-linecap="round" style="stroke:#000000;stroke-width:7.45"/>
	<line x1="583.37" y1="578.28" x2="591.62" y2="576.63" stroke-linecap="round" style="stroke:#000000;stroke-width:7.45"/>
	<line x1="591.62" y1="576.63" x2="599.88" y2="574.98" stroke-linecap="round" style="stroke:#000000;stroke-width:7.45"/>
	<line x1="599.88" y1="574.98" x2="608.13" y2="573.33" stroke-linecap="round" style="stroke:#000000;stroke-width:7.45"/>
	<line x1="608.13" y1="573.33" x2="616.39" y2="571.67" stroke-linecap="round" style="stroke:#000000;stroke-width:7.45"/>
	<line x1="616.39" y1="571.67" x2="624.64" y2="570.02" stroke-linecap="round" style="stroke:#000000;stroke-width:7.45"/>
	<line x1="624.64" y1="570.02" x2="632.90" y2="568.44" stroke-linecap="round" style="stroke:#000000;stroke-width:7.45"/>
	<line x1="632.90" y1="568.44" x2="641.15" y2="566.36" stroke-linecap="round" style="stroke:#000000;stroke-width:7.45"/>
	<line x1="641.15" y1="566.36" x2="649.40" y2="564.35" stroke-linecap="round" style="stroke:#000000;stroke-width:7.45"/>
	<line x1="649.40" y1="564.35" x2="657.73" y2="562.41" stroke-linecap="round" style="stroke:#000000;stroke-width:7.45"/>
	<line x1="657.73" y1="562.41" x2="665.99" y2="560.40" stroke-linecap="round" style="stroke:#000000;stroke-width:7.45"/>
	<line x1="665.99" y1="560.40" x2="674.24" y2="557.60" stroke-linecap="round" style="stroke:#000000;stroke-width:7.45"/>
	<line x1="674.24" y1="557.60" x2="682.50" y2="554.87" stroke-linecap="round" style="stroke:#000000;stroke-width:7.45"/>
	<line x1="682.50" y1="554.87" x2="690.75" y2="552.14" stroke-linecap="round" style="stroke:#000000;stroke-width:7.45"/>
	<line x1="690.75" y1="552.14" x2="699.01" y2="549.41" stroke-linecap="round" style="stroke:#000000;stroke-width:7.45"/>
	<line x1="699.01" y1="549.41" x2="707.26" y2="546.33" stroke-linecap="round" style="stroke:#000000;stroke-width:7.45"/>
	<line x1="707.26" y1="546.33" x2="715.52" y2="543.24" stroke-linecap="round" style="stroke:#000000;stroke-width:7.45"/>
	<line x1="715.52" y1="543.24" x2="723.77" y2="540.22" stroke-linecap="round" style="stroke:#000000;stroke-width:7.45"/>
	<line x1="723.77" y1="540.22" x2="732.03" y2="537.13" stroke-linecap="round" style="stroke:#000000;stroke-width:7.45"/>
	<line x1="732.03" y1="537.13" x2="740.28" y2="533.40" stroke-linecap="round" style="stroke:#000000;stroke-width:7.45"/>
	<line x1="740.28" y1="533.40" x2="748.53" y2="529.59" stroke-linecap="round" style="stroke:#000000;stroke-width:7.45"/>
	<line x1="748.53" y1="529.59" x2="756.86" y2="525.86" stroke-linecap="round" style="stroke:#000000;stroke-width:7.45"/>
	<line x1="756.86" y1="525.86" x2="765.12" y2="522.05" stroke-linecap="round" style="stroke:#000000;stroke-width:7.45"/>
	<line x1="765.12" y1="522.05" x2="773.37" y2="518.82" stroke-linecap="round" style="stroke:#000000;stroke-width:7.45"/>
	<line x1="773.37" y1="518.82" x2="781.63" y2="515.59" stroke-linecap="round" style="stroke:#000000;stroke-width:7.45"/>
	<line x1="781.63" y1="515.59" x2="789.88" y2="512.36" stroke-linecap="round" style="stroke:#000000;stroke-width:7.45"/>
	<line x1="789.88" y1="512.36" x2="798.14" y2="509.13" stroke-linecap="round" style="stroke:#000000;stroke-width:7.45"/>
	<line x1="798.14" y1="509.13" x2="806.39" y2="505.68" stroke-linecap="round" style="stroke:#000000;stroke-width:7.45"/>
	<line x1="806.39" y1="505.68" x2="814.65" y2="502.31" stroke-linecap="round" style="stroke:#000000;stroke-width:7.45"/>
	<line x1="814.65" y1="502.31" x2="822.90" y2="498.93" stroke-linecap="round" style="stroke:#000000;stroke-width:7.45"/>
	<line x1="822.90" y1="498.93" x2="831.16" y2="495.63" stroke-linecap="round" style="stroke:#000000;stroke-width:7.45"/>
	<line x1="831.16" y1="495.63" x2="839.41" y2="492.47" stroke-linecap="round" style="stroke:#000000;stroke-width:7.45"/>
	<line x1="839.41" y1="492.47" x2="847.74" y2="489.31" stroke-linecap="round" style="stroke:#000000;stroke-width:7.45"/>
	<line x1="847.74" y1="489.31" x2="855.99" y2="486.15" stroke-linecap="round" style="stroke:#000000;stroke-width:7.45"/>
	<line x1="855.99" y1="486.15" x2="864.25" y2="483.06" stroke-linecap="round" style="stroke:#000000;stroke-width:7.45"/>
	<line x1="864.25" y1="483.06" x2="872.50" y2="479.90" stroke-linecap="round" style="stroke:#000000;stroke-width:7.45"/>
	<line x1="872.50" y1="479.90" x2="880.76" y2="476.81" stroke-linecap="round" style="stroke:#000000;stroke-width:7.45"/>
	<line x1="880.76" y1="476.81" x2="889.01" y2="473.65" stroke-linecap="round" style="stroke:#000000;stroke-width:7.45"/>
	<line x1="889.01" y1="473.65" x2="897.27" y2="470.57" stroke-linecap="round" style="stroke:#000000;stroke-width:7.45"/>
	<line x1="897.27" y1="470.57" x2="905.52" y2="468.20" stroke-linecap="round" style="stroke:#000000;stroke-width:7.45"/>
	<line x1="905.52" y1="468.20" x2="913.78" y2="465.76" stroke-linecap="round" style="stroke:#000000;stroke-width:7.45"/>
	<line x1="913.78" y1="465.76" x2="922.03" y2="463.46" stroke-linecap="round" style="stroke:#000000;stroke-width:7.45"/>
	<line x1="922.03" y1="463.46" x2="930.28" y2="461.09" stroke-linecap="round" style="stroke:#000000;stroke-width:7.45"/>
	<line x1="930.28" y1="461.09" x2="938.61" y2="458.86" stroke-linecap="round" style="stroke:#000000;stroke-width:7.45"/>
	<line x1="938.61" y1="458.86" x2="946.87" y2="456.64" stroke-linecap="round" style="stroke:#000000;stroke-width:7.45"/>
	<line x1="946.87" y1="456.64" x2="955.12" y2="454.41" stroke-linecap="round" style="stroke:#000000;stroke-width:7.45"/>
	<line x1="955.12" y1="454.41" x2="963.38" y2="452.18" stroke-linecap="round" style="stroke:#000000;stroke-width:7.45"/>
	<line x1="963.38" y1="452.18" x2="971.63" y2="449.53" stroke-linecap="round" style="stroke:#000000;stroke-width:7.45"/>
	<line x1="971.63" y1="449.53" x2="979.89" y2="446.87" stroke-linecap="round" style="stroke:#000000;stroke-width:7.45"/>
	<line x1="979.89" y1="446.87" x2="988.14" y2="444.21" stroke-linecap="round" style="stroke:#000000;stroke-width:7.45"/>
	<line x1="988.14" y1="444.21" x2="996.40" y2="441.56" stroke-linecap="round" style="stroke:#000000;stroke-width:7.45"/>
	<line x1="996.40" y1="441.56" x2="1004.65" y2="438.83" stroke-linecap="round" style="stroke:#000000;stroke-width:7.45"/>
	<line x1="1004.65" y1="438.83" x2="1012.91" y2="436.03" stroke-linecap="round" style="stroke:#000000;stroke-width:7.45"/>
	<line x1="1012.91" y1="436.03" x2="1021.16" y2="433.30" stroke-linecap="round" style="stroke:#000000;stroke-width:7.45"/>
	<line x1="1021.16" y1="433.30" x2="1029.49" y2="430.57" stroke-linecap="round" style="stroke:#000000;stroke-width:7.45"/>
	<line x1="1029.49" y1="430.57" x2="1037.74" y2="428.27" stroke-linecap="round" style="stroke:#000000;stroke-width:7.45"/>
	<line x1="1037.74" y1="428.27" x2="1046.00" y2="425.97" stroke-linecap="round" style="stroke:#000000;stroke-width:7.45"/>
	<line x1="1046.00" y1="425.97" x2="1054.25" y2="423.60" stroke-linecap="round" style="stroke:#000000;stroke-width:7.45"/>
	<line x1="1054.25" y1="423.60" x2="1062.51" y2="421.31" stroke-linecap="round" style="stroke:#000000;stroke-width:7.45"/>
	<line x1="1062.51" y1="421.31" x2="1070.76" y2="418.94" stroke-linecap="round" style="stroke:#000000;stroke-width:7.45"/>
	<line x1="1070.76" y1="418.94" x2="1079.02" y2="416.57" stroke-linecap="round" style="stroke:#000000;stroke-width:7.45"/>
	<line x1="1079.02" y1="416.57" x2="1087.27" y2="414.20" stroke-linecap="round" style="stroke:#000000;stroke-width:7.45"/>
	<line x1="1087.27" y1="414.20" x2="1095.53" y2="411.83" stroke-linecap="round" style="stroke:#000000;stroke-width:7.45"/>
	<line x1="1095.53" y1="411.83" x2="1103.78" y2="409.10" stroke-linecap="round" style="stroke:#000000;stroke-width:7.45"/>
	<line x1="1103.78" y1="409.10" x2="1112.04" y2="406.44" stroke-linecap="round" style="stroke:#000000;stroke-width:7.45"/>
	<line x1="1112.04" y1="406.44" x2="1120.29" y2="403.78" stroke-linecap="round" style="stroke:#000000;stroke-width:7.45"/>
	<line x1="1120.29" y1="403.78" x2="1128.62" y2="401.13" stroke-linecap="round" style="stroke:#000000;stroke-width:7.45"/>
	<line x1="1128.62" y1="401.13" x2="1136.87" y2="398.18" stroke-linecap="round" style="stroke:#000000;stroke-width:7.45"/>
	<line x1="1136.87" y1="398.18" x2="1145.13" y2="395.31" stroke-linecap="round" style="stroke:#000000;stroke-width:7.45"/>
	<line x1="1145.13" y1="395.31" x2="1153.38" y2="392.44" stroke-linecap="round" style="stroke:#000000;stroke-width:7.45"/>
	<line x1="1153.38" y1="392.44" x2="1161.64" y2="389.57" stroke-linecap="round" style="stroke:#000000;stroke-width:7.45"/>
	<line x1="1161.64" y1="389.57" x2="1169.89" y2="387.77" stroke-linecap="round" style="stroke:#000000;stroke-width:7.45"/>
	<line x1="1169.89" y1="387.77" x2="1178.15" y2="385.90" stroke-linecap="round" style="stroke:#000000;stroke-width:7.45"/>
	<line x1="1178.15" y1="385.90" x2="1186.40" y2="384.11" stroke-linecap="round" style="stroke:#000000;stroke-width:7.45"/>
	<line x1="1186.40" y1="384.11" x2="1194.66" y2="382.31" stroke-linecap="round" style="stroke:#000000;stroke-width:7.45"/>
	<line x1="1194.66" y1="382.31" x2="1202.91" y2="380.09" stroke-linecap="round" style="stroke:#000000;stroke-width:7.45"/>
	<line x1="1202.91" y1="380.09" x2="1211.17" y2="377.93" stroke-linecap="round" style="stroke:#000000;stroke-width:7.45"/>
	<line x1="1211.17" y1="377.93" x2="1219.49" y2="375.78" stroke-linecap="round" style="stroke:#000000;stroke-width:7.45"/>
	<line x1="1219.49" y1="375.78" x2="1227.75" y2="373.70" stroke-linecap="round" style="stroke:#000000;stroke-width:7.45"/>
	<line x1="1227.75" y1="373.70" x2="1236.00" y2="371.97" stroke-linecap="round" style="stroke:#000000;stroke-width:7.45"/>
	<line x1="1236.00" y1="371.97" x2="1244.26" y2="370.25" stroke-linecap="round" style="stroke:#000000;stroke-width:7.45"/>
	<line x1="1244.26" y1="370.25" x2="1252.51" y2="368.53" stroke-linecap="round" style="stroke:#000000;stroke-width:7.45"/>
	<line x1="1252.51" y1="368.53" x2="1260.77" y2="366.87" stroke-linecap="round" style="stroke:#000000;stroke-width:7.45"/>
	<line x1="1260.77" y1="366.87" x2="1269.02" y2="365.72" stroke-linecap="round" style="stroke:#000000;stroke-width:7.45"/>
	<line x1="1269.02" y1="365.72" x2="1277.28" y2="364.65" stroke-linecap="round" style="stroke:#000000;stroke-width:7.45"/>
	<line x1="1277.28" y1="364.65" x2="1285.53" y2="363.50" stroke-linecap="round" style="stroke:#000000;stroke-width:7.45"/>
	<line x1="1285.53" y1="363.50" x2="1293.79" y2="362.42" stroke-linecap="round" style="stroke:#000000;stroke-width:7.45"/>
	<line x1="1293.79" y1="362.42" x2="1302.04" y2="361.63" stroke-linecap="round" style="stroke:#000000;stroke-width:7.45"/>
	<line x1="1302.04" y1="361.63" x2="1310.37" y2="360.84" stroke-linecap="round" style="stroke:#000000;stroke-width:7.45"/>
	<line x1="1310.37" y1="360.84" x2="1318.62" y2="360.12" stroke-linecap="round" style="stroke:#000000;stroke-width:7.45"/>
	<line x1="1318.62" y1="360.12" x2="1326.88" y2="359.33" stroke-linecap="round" style="stroke:#000000;stroke-width:7.45"/>
	<line x1="1326.88" y1="359.33" x2="1335.13" y2="358.47" stroke-linecap="round" style="stroke:#000000;stroke-width:7.45"/>
	<line x1="1335.13" y1="358.47" x2="1343.39" y2="357.61" stroke-linecap="round" style="stroke:#000000;stroke-width:7.45"/>
	<line x1="1343.39" y1="357.61" x2="1351.64" y2="356.75" stroke-linecap="round" style="stroke:#000000;stroke-width:7.45"/>
	<line x1="1351.64" y1="356.75" x2="1359.90" y2="355.89" stroke-linecap="round" style="stroke:#000000;stroke-width:7.45"/>
	<line x1="1359.90" y1="355.89" x2="1368.15" y2="355.67" stroke-linecap="round" style="stroke:#000000;stroke-width:7.45"/>
	<line x1="1368.15" y1="355.67" x2="1376.41" y2="355.53" stroke-linecap="round" style="stroke:#000000;stroke-width:7.45"/>
	<line x1="1376.41" y1="355.53" x2="1384.66" y2="355.31" stroke-linecap="round" style="stroke:#000000;stroke-width:7.45"/>
	<line x1="1384.66" y1="355.31" x2="1392.92" y2="355.17" stroke-linecap="round" style="stroke:#000000;stroke-width:7.45"/>
	<line x1="1392.92" y1="355.17" x2="1401.24" y2="354.88" stroke-linecap="round" style="stroke:#000000;stroke-width:7.45"/>
	<line x1="1401.24" y1="354.88" x2="1409.50" y2="354.59" stroke-linecap="round" style="stroke:#000000;stroke-width:7.45"/>
	<line x1="1409.50" y1="354.59" x2="1417.75" y2="354.31" stroke-linecap="round" style="stroke:#000000;stroke-width:7.45"/>
	<line x1="1417.75" y1="354.31" x2="1426.01" y2="354.02" stroke-linecap="round" style="stroke:#000000;stroke-width:7.45"/>
	<line x1="1426.01" y1="354.02" x2="1434.26" y2="354.16" stroke-linecap="round" style="stroke:#000000;stroke-width:7.45"/>
	<line x1="1434.26" y1="354.16" x2="1442.52" y2="354.38" stroke-linecap="round" style="stroke:#000000;stroke-width:7.45"/>
	<line x1="1442.52" y1="354.38" x2="1450.77" y2="354.52" stroke-linecap="round" style="stroke:#000000;stroke-width:7.45"/>
	<line x1="1450.77" y1="354.52" x2="1459.03" y2="354.67" stroke-linecap="round" style="stroke:#000000;stroke-width:7.45"/>
	<line x1="1459.03" y1="354.67" x2="1467.28" y2="355.74" stroke-linecap="round" style="stroke:#000000;stroke-width:7.45"/>
	<line x1="1467.28" y1="355.74" x2="1475.54" y2="356.89" stroke-linecap="round" style="stroke:#000000;stroke-width:7.45"/>
	<line x1="1475.54" y1="356.89" x2="1483.79" y2="357.97" stroke-linecap="round" style="stroke:#000000;stroke-width:7.45"/>
	<line x1="1483.79" y1="357.97" x2="1492.05" y2="359.05" stroke-linecap="round" style="stroke:#000000;stroke-width:7.45"/>
	<line x1="1492.05" y1="359.05" x2="1500.37" y2="360.41" stroke-linecap="round" style="stroke:#000000;stroke-width:7.45"/>
	<line x1="1500.37" y1="360.41" x2="1508.63" y2="361.70" stroke-linecap="round" style="stroke:#000000;stroke-width:7.45"/>
	<line x1="1508.63" y1="361.70" x2="1516.88" y2="363.07" stroke-linecap="round" style="stroke:#000000;stroke-width:7.45"/>
	<line x1="1516.88" y1="363.07" x2="1525.14" y2="364.36" stroke-linecap="round" style="stroke:#000000;stroke-width:7.45"/>
	<line x1="1525.14" y1="364.36" x2="1533.39" y2="365.94" stroke-linecap="round" style="stroke:#000000;stroke-width:7.45"/>
	<line x1="1533.39" y1="365.94" x2="1541.65" y2="367.45" stroke-linecap="round" style="stroke:#000000;stroke-width:7.45"/>
	<line x1="1541.65" y1="367.45" x2="1549.90" y2="369.03" stroke-linecap="round" style="stroke:#000000;stroke-width:7.45"/>
	<line x1="1549.90" y1="369.03" x2="1558.16" y2="370.54" stroke-linecap="round" style="stroke:#000000;stroke-width:7.45"/>
	<line x1="1558.16" y1="370.54" x2="1566.41" y2="371.40" stroke-linecap="round" style="stroke:#000000;stroke-width:7.45"/>
	<line x1="1566.41" y1="371.40" x2="1574.67" y2="372.19" stroke-linecap="round" style="stroke:#000000;stroke-width:7.45"/>
	<line x1="1574.67" y1="372.19" x2="1582.92" y2="372.98" stroke-linecap="round" style="stroke:#000000;stroke-width:7.45"/>
	<line x1="1582.92" y1="372.98" x2="1591.25" y2="373.84" stroke-linecap="round" style="stroke:#000000;stroke-width:7.45"/>
	<line x1="1591.25" y1="373.84" x2="1599.50" y2="374.70" stroke-linecap="round" style="stroke:#000000;stroke-width:7.45"/>
	<line x1="1599.50" y1="374.70" x2="1607.76" y2="375.56" stroke-linecap="round" style="stroke:#000000;stroke-width:7.45"/>
	<line x1="1607.76" y1="375.56" x2="1616.01" y2="376.50" stroke-linecap="round" style="stroke:#000000;stroke-width:7.45"/>
	<line x1="1616.01" y1="376.50" x2="1624.27" y2="377.36" stroke-linecap="round" style="stroke:#000000;stroke-width:7.45"/>
	<line x1="1624.27" y1="377.36" x2="1632.52" y2="378.00" stroke-linecap="round" style="stroke:#000000;stroke-width:7.45"/>
	<line x1="1632.52" y1="378.00" x2="1640.78" y2="378.65" stroke-linecap="round" style="stroke:#000000;stroke-width:7.45"/>
	<line x1="1640.78" y1="378.65" x2="1649.03" y2="379.30" stroke-linecap="round" style="stroke:#000000;stroke-width:7.45"/>
	<line x1="1649.03" y1="379.30" x2="1657.29" y2="380.01" stroke-linecap="round" style="stroke:#000000;stroke-width:7.45"/>
	<line x1="1657.29" y1="380.01" x2="1665.54" y2="379.73" stroke-linecap="round" style="stroke:#000000;stroke-width:7.45"/>
	<line x1="1665.54" y1="379.73" x2="1673.80" y2="379.51" stroke-linecap="round" style="stroke:#000000;stroke-width:7.45"/>
	<line x1="1673.80" y1="379.51" x2="1682.12" y2="379.30" stroke-linecap="round" style="stroke:#000000;stroke-width:7.45"/>
	<line x1="1682.12" y1="379.30" x2="1690.38" y2="379.01" stroke-linecap="round" style="stroke:#000000;stroke-width:7.45"/>
	<line x1="1690.38" y1="379.01" x2="1698.63" y2="379.01" stroke-linecap="round" style="stroke:#000000;stroke-width:7.45"/>
	<line x1="1698.63" y1="379.01" x2="1706.89" y2="378.94" stroke-linecap="round" style="stroke:#000000;stroke-width:7.45"/>
	<line x1="1706.89" y1="378.94" x2="1715.14" y2="378.94" stroke-linecap="round" style="stroke:#000000;stroke-width:7.45"/>
	<line x1="1715.14" y1="378.94" x2="1723.40" y2="378.87" stroke-linecap="round" style="stroke:#000000;stroke-width:7.45"/>
	<line x1="1723.40" y1="378.87" x2="1731.65" y2="378.15" stroke-linecap="round" style="stroke:#000000;stroke-width:7.45"/>
	<line x1="1731.65" y1="378.15" x2="1739.91" y2="377.43" stroke-linecap="round" style="stroke:#000000;stroke-width:7.45"/>
	<line x1="1739.91" y1="377.43" x2="1748.16" y2="376.64" stroke-linecap="round" style="stroke:#000000;stroke-width:7.45"/>
	<line x1="1748.16" y1="376.64" x2="1756.42" y2="375.92" stroke-linecap="round" style="stroke:#000000;stroke-width:7.45"/>
	<line x1="1756.42" y1="375.92" x2="1764.67" y2="374.84" stroke-linecap="round" style="stroke:#000000;stroke-width:7.45"/>
	<line x1="1764.67" y1="374.84" x2="1773.00" y2="373.84" stroke-linecap="round" style="stroke:#000000;stroke-width:7.45"/>
	<line x1="1773.00" y1="373.84" x2="1781.25" y2="372.76" stroke-linecap="round" style="stroke:#000000;stroke-width:7.45"/>
	<line x1="1781.25" y1="372.76" x2="1789.51" y2="371.76" stroke-linecap="round" style="stroke:#000000;stroke-width:7.45"/>
	<line x1="1789.51" y1="371.76" x2="1797.76" y2="369.75" stroke-linecap="round" style="stroke:#000000;stroke-width:7.45"/>
	<line x1="1797.76" y1="369.75" x2="1806.02" y2="367.74" stroke-linecap="round" style="stroke:#000000;stroke-width:7.45"/>
	<line x1="1806.02" y1="367.74" x2="1814.27" y2="365.80" stroke-linecap="round" style="stroke:#000000;stroke-width:7.45"/>
	<line x1="1814.27" y1="365.80" x2="1822.53" y2="363.79" stroke-linecap="round" style="stroke:#000000;stroke-width:7.45"/>
	<line x1="1822.53" y1="363.79" x2="1830.78" y2="359.98" stroke-linecap="round" style="stroke:#000000;stroke-width:7.45"/>
	<line x1="1830.78" y1="359.98" x2="1839.04" y2="356.10" stroke-linecap="round" style="stroke:#000000;stroke-width:7.45"/>
	<line x1="1839.04" y1="356.10" x2="1847.29" y2="352.37" stroke-linecap="round" style="stroke:#000000;stroke-width:7.45"/>
	<line x1="1847.29" y1="352.37" x2="1855.55" y2="348.56" stroke-linecap="round" style="stroke:#000000;stroke-width:7.45"/>
	<line x1="1855.55" y1="348.56" x2="1863.87" y2="345.33" stroke-linecap="round" style="stroke:#000000;stroke-width:7.45"/>
	<line x1="1863.87" y1="345.33" x2="1872.13" y2="342.10" stroke-linecap="round" style="stroke:#000000;stroke-width:7.45"/>
	<line x1="1872.13" y1="342.10" x2="1880.38" y2="338.87" stroke-linecap="round" style="stroke:#000000;stroke-width:7.45"/>
	<line x1="1880.38" y1="338.87" x2="1888.64" y2="335.71" stroke-linecap="round" style="stroke:#000000;stroke-width:7.45"/>
	<line x1="1888.64" y1="335.71" x2="1896.89" y2="332.33" stroke-linecap="round" style="stroke:#000000;stroke-width:7.45"/>
	<line x1="1896.89" y1="332.33" x2="1905.15" y2="329.03" stroke-linecap="round" style="stroke:#000000;stroke-width:7.45"/>
	<line x1="1905.15" y1="329.03" x2="1913.40" y2="325.66" stroke-linecap="round" style="stroke:#000000;stroke-width:7.45"/>
	<line x1="1913.40" y1="325.66" x2="1921.66" y2="322.35" stroke-linecap="round" style="stroke:#000000;stroke-width:7.45"/>
	<line x1="1921.66" y1="322.35" x2="1929.91" y2="318.62" stroke-linecap="round" style="stroke:#000000;stroke-width:7.45"/>
	<line x1="1929.91" y1="318.62" x2="1938.17" y2="314.96" stroke-linecap="round" style="stroke:#000000;stroke-width:7.45"/>
	<line x1="1938.17" y1="314.96" x2="1946.42" y2="311.29" stroke-linecap="round" style="stroke:#000000;stroke-width:7.45"/>
	<line x1="1946.42" y1="311.29" x2="1954.68" y2="307.56" stroke-linecap="round" style="stroke:#000000;stroke-width:7.45"/>
	<line x1="1954.68" y1="307.56" x2="1963.00" y2="298.30" stroke-linecap="round" style="stroke:#000000;stroke-width:7.45"/>
	<line x1="1963.00" y1="298.30" x2="1971.26" y2="288.96" stroke-linecap="round" style="stroke:#000000;stroke-width:7.45"/>
	<line x1="1971.26" y1="288.96" x2="1979.51" y2="279.70" stroke-linecap="round" style="stroke:#000000;stroke-width:7.45"/>
	<line x1="1979.51" y1="279.70" x2="1987.77" y2="270.51" stroke-linecap="round" style="stroke:#000000;stroke-width:7.45"/>
	<line x1="1987.77" y1="270.51" x2="1996.02" y2="262.89" stroke-linecap="round" style="stroke:#000000;stroke-width:7.45"/>
	<line x1="1996.02" y1="262.89" x2="2004.28" y2="255.43" stroke-linecap="round" style="stroke:#000000;stroke-width:7.45"/>
	<line x1="2004.28" y1="255.43" x2="2012.53" y2="247.89" stroke-linecap="round" style="stroke:#000000;stroke-width:7.45"/>
	<line x1="2012.53" y1="247.89" x2="2020.79" y2="240.42" stroke-linecap="round" style="stroke:#000000;stroke-width:7.45"/>
	<line x1="2020.79" y1="240.42" x2="2029.04" y2="232.88" stroke-linecap="round" style="stroke:#000000;stroke-width:7.45"/>
	<line x1="2029.04" y1="232.88" x2="2037.30" y2="225.41" stroke-linecap="round" style="stroke:#000000;stroke-width:7.45"/>
	<line x1="2037.30" y1="225.41" x2="2045.55" y2="218.01" stroke-linecap="round" style="stroke:#000000;stroke-width:7.45"/>
	<line x1="2045.55" y1="218.01" x2="2053.88" y2="210.54" stroke-linecap="round" style="stroke:#000000;stroke-width:7.45"/>
	<line x1="2053.88" y1="210.54" x2="2062.13" y2="203.36" stroke-linecap="round" style="stroke:#000000;stroke-width:7.45"/>
	<line x1="2062.13" y1="203.36" x2="2070.39" y2="196.25" stroke-linecap="round" style="stroke:#000000;stroke-width:7.45"/>
	<line x1="2070.39" y1="196.25" x2="2078.64" y2="189.15" stroke-linecap="round" style="stroke:#000000;stroke-width:7.45"/>
	<line x1="2078.64" y1="189.15" x2="2086.90" y2="182.04" stroke-linecap="round" style="stroke:#000000;stroke-width:7.45"/>
	<line x1="2086.90" y1="182.04" x2="2095.15" y2="174.78" stroke-linecap="round" style="stroke:#000000;stroke-width:7.45"/>
	<line x1="2095.15" y1="174.78" x2="2103.41" y2="167.53" stroke-linecap="round" style="stroke:#000000;stroke-width:7.45"/>
	<line x1="2103.41" y1="167.53" x2="2111.66" y2="160.28" stroke-linecap="round" style="stroke:#000000;stroke-width:7.45"/>
	<line x1="2111.66" y1="160.28" x2="2119.92" y2="153.10" stroke-linecap="round" style="stroke:#000000;stroke-width:7.45"/>
	<line x1="2119.92" y1="153.10" x2="2128.17" y2="145.41" stroke-linecap="round" style="stroke:#000000;stroke-width:7.45"/>
	<line x1="2128.17" y1="145.41" x2="2136.43" y2="137.73" stroke-linecap="round" style="stroke:#000000;stroke-width:7.45"/>
	<line x1="2136.43" y1="137.73" x2="2144.75" y2="130.12" stroke-linecap="round" style="stroke:#000000;stroke-width:7.45"/>
	<line x1="2144.75" y1="130.12" x2="2153.01" y2="122.51" stroke-linecap="round" style="stroke:#000000;stroke-width:7.45"/>
	<line x1="224.75" y1="1382.47" x2="224.75" y2="58.02" style="stroke:#D9D9D9;stroke-width:4.97"/>
	<line x1="224.75" y1="1345.99" x2="201.78" y2="1345.99" style="stroke:#D9D9D9;stroke-width:3.31"/>
	<text x="172.94" y="1345.99" style="font-family:'Helvetica';font-size:57.50px;fill:#000000" transform="rotate(-90 172.94,1345.99)" text-anchor="middle">0</text>
	<line x1="224.75" y1="954.92" x2="201.78" y2="954.92" style="stroke:#D9D9D9;stroke-width:3.31"/>
	<text x="172.94" y="954.92" style="font-family:'Helvetica';font-size:57.50px;fill:#000000" transform="rotate(-90 172.94,954.92)" text-anchor="middle">5</text>
	<line x1="224.75" y1="563.77" x2="201.78" y2="563.77" style="stroke:#D9D9D9;stroke-width:3.31"/>
	<text x="172.94" y="563.77" style="font-family:'Helvetica';font-size:57.50px;fill:#000000" transform="rotate(-90 172.94,563.77)" text-anchor="middle">10</text>
	<line x1="224.75" y1="172.70" x2="201.78" y2="172.70" style="stroke:#D9D9D9;stroke-width:3.31"/>
	<text x="172.94" y="172.70" style="font-family:'Helvetica';font-size:57.50px;fill:#000000" transform="rotate(-90 172.94,172.70)" text-anchor="middle">15</text>
	<text x="109.70" y="745.09" style="font-family:'Helvetica';font-size:57.50px;fill:#000000" transform="rotate(-90 109.70,745.09)" text-anchor="middle">Share on Total, Percent</text>
	<line x1="224.75" y1="1382.47" x2="2239.00" y2="1382.47" style="stroke:#D9D9D9;stroke-width:4.97"/>
	<line x1="261.21" y1="1382.47" x2="261.21" y2="1405.45" style="stroke:#D9D9D9;stroke-width:3.31"/>
	<text x="261.21" y="1457.17" style="font-family:'Helvetica';font-size:57.50px;fill:#000000" text-anchor="middle">1960</text>
	<line x1="591.62" y1="1382.47" x2="591.62" y2="1405.45" style="stroke:#D9D9D9;stroke-width:3.31"/>
	<text x="591.62" y="1457.17" style="font-family:'Helvetica';font-size:57.50px;fill:#000000" text-anchor="middle">1970</text>
	<line x1="922.10" y1="1382.47" x2="922.10" y2="1405.45" style="stroke:#D9D9D9;stroke-width:3.31"/>
	<text x="922.10" y="1457.17" style="font-family:'Helvetica';font-size:57.50px;fill:#000000" text-anchor="middle">1980</text>
	<line x1="1252.51" y1="1382.47" x2="1252.51" y2="1405.45" style="stroke:#D9D9D9;stroke-width:3.31"/>
	<text x="1252.51" y="1457.17" style="font-family:'Helvetica';font-size:57.50px;fill:#000000" text-anchor="middle">1990</text>
	<line x1="1582.99" y1="1382.47" x2="1582.99" y2="1405.45" style="stroke:#D9D9D9;stroke-width:3.31"/>
	<text x="1582.99" y="1457.17" style="font-family:'Helvetica';font-size:57.50px;fill:#000000" text-anchor="middle">2000</text>
	<line x1="1913.47" y1="1382.47" x2="1913.47" y2="1405.45" style="stroke:#D9D9D9;stroke-width:3.31"/>
	<text x="1913.47" y="1457.17" style="font-family:'Helvetica';font-size:57.50px;fill:#000000" text-anchor="middle">2010</text>
	<text x="1231.91" y="1570.20" style="font-family:'Helvetica';font-size:57.50px;fill:#000000" text-anchor="middle">Year</text>
</svg>
